#define menu_width 12
#define menu_height 12
static unsigned char menu_bits[] = {
 0xFF, 0x0F, 0xFF, 0x0F, 0x03, 0x0C, 0x03, 0x0C, 0x03, 0x0C, 0x03, 0x0C,
 0x03, 0x0C, 0x03, 0x0C, 0x03, 0x0C, 0x03, 0x0C, 0xFF, 0x0F, 0xFF, 0x0F };
