#define max_toggled_width 11
#define max_toggled_height 11
static unsigned char max_toggled_bits[] = {
 0xFF, 0x07, 0xFF, 0x07, 0x01, 0x04, 0x01, 0x04, 0x01, 0x04, 0x3F, 0x04,
 0x3F, 0x04, 0x21, 0x04, 0x21, 0x04, 0x21, 0x04, 0xFF, 0x07 };
