#define close_width 11
#define close_height 11
static unsigned char close_bits[] = {
 0x02, 0x02, 0x07, 0x07, 0x8E, 0x03, 0xDC, 0x01, 0xF8, 0x00, 0x70, 0x00,
 0xF8, 0x00, 0xDC, 0x01, 0x8E, 0x03, 0x07, 0x07, 0x02, 0x02 };
