#define max_width 11
#define max_height 11
static unsigned char max_bits[] = {
 0xFF, 0x07, 0xFF, 0x07, 0x01, 0x04, 0x01, 0x04, 0x01, 0x04, 0x01, 0x04,
 0x01, 0x04, 0x01, 0x04, 0x01, 0x04, 0x01, 0x04, 0xFF, 0x07 };
